# xmcd
#
# Track frame offsets:
#	150
#	13395
#	26080
#	38549
#	50896
#	65059
#	77320
#	92305
#	106522
#	122226
#	134565
#	144759
#	156896
#	170609
#	181927
#	194704
#	203998
#	216249
#	229084
#	242361
#	253762
#
# Disc length: 3566 seconds
#
# Revision: 0
# Processed by: cddbd v1.5.1PL0 Copyright (c) Steve Scherf et al.
# Submitted via: dBpowerAMP V4.0
#
DISCID=250dec15
DTITLE=Jimmy Rogers - Kings Of World Music
DYEAR=2001
DGENRE=Blues
TTITLE0=Left Me With A Broken Heart
TTITLE1=That's All Right
TTITLE2=Walking By Myself
TTITLE3=I Can't Believe
TTITLE4=Today, Today Blues
TTITLE5=You Don't Know
TTITLE6=Hard Working Woman
TTITLE7=Back Door Friend
TTITLE8=Mistreated Baby
TTITLE9=Goin' Away Baby
TTITLE10=Don't Turn Me Down
TTITLE11=Chicago Bound
TTITLE12=Sloppy Drunk
TTITLE13=You're The One
TTITLE14=Rock This House
TTITLE15=If It Ain't Me
TTITLE16=What Have I Done
TTITLE17=Ludella
TTITLE18=The World Is In A Tangle
TTITLE19=I'm In Love
TTITLE20=Blues All Day Long (Leave Me Alone)
EXTD=
EXTT0=
EXTT1=
EXTT2=
EXTT3=
EXTT4=
EXTT5=
EXTT6=
EXTT7=
EXTT8=
EXTT9=
EXTT10=
EXTT11=
EXTT12=
EXTT13=
EXTT14=
EXTT15=
EXTT16=
EXTT17=
EXTT18=
EXTT19=
EXTT20=
PLAYORDER=
